<?xml version="1.0" encoding="utf-8"?>
<!-- Generator: Adobe Illustrator 25.0.1, SVG Export Plug-In . SVG Version: 6.00 Build 0)  -->
<svg version="1.1" id="Layer_1" xmlns="http://www.w3.org/2000/svg" xmlns:xlink="http://www.w3.org/1999/xlink" x="0px" y="0px"
	 viewBox="0 0 1924 1924" style="enable-background:new 0 0 1924 1924;" xml:space="preserve">
<style type="text/css">
	.st0{fill-rule:evenodd;clip-rule:evenodd;fill:#040F3D;}
	.st1{fill-rule:evenodd;clip-rule:evenodd;fill:#FFFFFF;}
</style>
<g id="logo">
	<g id="blog" transform="translate(24.000000, 165.000000)">
		<path id="Shape" class="st0" d="M1885.4,818.7c0-0.8,0-1.5,0-2.3c0.3,0.8,0.6,1.6,0.9,2.4l0,0l1.5,3.7L1885.4,818.7z
			 M1885.4,816.4c-9.4-25.2-20.6-49.7-21.7-77.7C1877.4,762.5,1885.3,788.2,1885.4,816.4z M1852.4,509.5c4.7,6.3,9.8,13.2,19.8,26.5
			C1856.7,523.7,1855.9,523.1,1852.4,509.5z M1851.7,507.2c0.2,0.8,0.4,1.6,0.6,2.3c-0.4-0.5-0.8-1.1-1.2-1.6L1851.7,507.2z
			 M1851.1,505.2l0.7,2l-0.6,0.7L1851.1,505.2z M1851,504l0.1,1.2l-1.4-4.1L1851,504z M1854.6,708.3l-3.1,1.8l-0.2-4L1854.6,708.3z
			 M1848.5,695.9c3.8,19.2,7.7,38.5,11.5,57.7C1848,736.5,1838.6,718.8,1848.5,695.9z M1830.9,463.5l2.8-6.9l5.6,4.3l-2.4,6.9
			L1830.9,463.5z M268.6,1337.4c-0.6-0.9,2.2-4.3,4.1-7.6c3,3.5,6.2,6.4,8.1,10l-3.5,6.7C274.3,1343.5,270.9,1340.8,268.6,1337.4z
			 M1631.7,282.6l5.8,7.3c60.3,49.2,90.4,120.9,126.1,188.4l3.8,8.6c31.9,37.2,39.5,84,47.5,130.8c1.8,10.7,6,20.9,9.1,31
			c-4.7,5.7-13.3,11.4-13.1,16.7c1.1,25.2,2.9,50.6,7.5,75.4c0.3,1.5,0.5,3.1,0.8,4.6c9.7,41,18,82.5,25.5,124.1
			c2.5,13.8-1.7,29.2-3.2,43.9c-3.8-9.1-9.5-17.9-10-27.3c-1.1-23-4.3-45.5-8.9-67.5c-0.6,12-1.6,24-2.9,36
			c-2.5,23.5-7.3,46.9-7.1,70.3c0.5,44.6-16.5,85-25.2,127.3l0.7-0.3l0.1,2.8l-1.1-0.8c-0.7,3.3-1.3,6.6-1.8,9.9
			c-2.7,16.7-18.1,29.2-15.3,47.8c2,0.7,3.9,1,5.7,1c9.2,0,14.3-8.3,16.7-13.5c14-31.1,40.9-55.2,44.6-91.8
			c0.5-4.6,1.7-9.8,4.2-13.4c29.1-41.7,22.3-90.1,23.6-137.1l0.1-9.4l2.3-4.1c1.6-0.5,3.1-0.7,4.5-0.7c6.5,0,10.1,4.8,10.8,12.1
			c3.4,36.8-2.3,72.7-12.1,107.8c-8.1,28.9-17.8,57.3-27.6,85.6c-3.5,10.2-8.3,20.5-14.5,29.2c-17.9,25.3-38.8,48.3-50.2,78.5
			c-2.4,6.4-9.8,13.2-16.1,15.2c-17,5.2-22.8,19.8-29,34c-8.1,18.5-17.8,35.8-28.8,52.1c-2.8,7.8-5.6,15.5-8.5,23.2
			c-4.6,12.1-8.2,22.9-21.1,30c-5.5,3-7.7,12.5-11.3,19.2c-8.9,16.7-15.2,35.4-27.2,49.6c-18.5,22-26.4,50.2-48.7,70.1
			c-16.1,14.3-27.4,23-33.2,23c-2.1,0-3.5-1.1-4.2-3.4c-4.7-15.8,7.6-26.5,16.3-36.8c19.7-23.1,41.3-44.6,56.1-71.5
			c8.2-14.9,16.8-29.6,23.7-44.8c-0.6,0.3-1.2,0.5-1.8,0.8c-7,9.9-12.6,21.8-21.7,28.9c-11.9,9.3-24.3,17.1-40.3,17.1
			c-2.9,0-6-0.3-9.1-0.8c-1.1-0.2-2.2-0.3-3.2-0.5c-0.6,0.9-1.2,1.7-1.8,2.6c-6.9,10.2-13.8,20.1-21.5,29.3
			c-0.2,4.2-0.1,9.3-2.3,12.1c-9.2,11.7-16.8,25.9-35.1,30.3c2.1-5.2,4-9.8,5.9-14.7c-0.6,0.4-1.3,0.8-2,1.2
			c-6.7,3.9-14.4,9.3-17.6,15.8c-2.8,5.8-6,11.3-9.5,16.4l0.5,0.4l-1.3,0.7c-11.5,16.6-26.3,30.1-43.5,42
			c-10.3,7.1-12,21.2-5.4,28.9c4.2,4.8,9.4,7.2,14.9,7.2c3.5,0,7.1-1,10.5-2.9c15.2-8.6,29.5-19,44.2-28.5c6.7-4.3,13.4-8.6,20.5-12
			l8.1,2l2.6,8.1c-4.1,8.3-7.7,17.9-14.4,23.6c-15.4,13.4-29.7,28.3-49.2,36.6c-11.2,4.8-21.1,12.9-32.8,20.2
			c-2.8-3.3-6.4-7.8-10.1-12.2l-8.8-1.5c-25.8,7.3-51.5,14.7-77.1,22.9c-3.6,1.2-8,6.4-8.6,10.1c-1.3,7.6,4.7,9.9,11.4,10.9
			c2.7,0.4,5.1,2.5,9.3,4.6c-17.6,13.4-42.7,11.2-56,31.4l-21.1,0.2c-12.4,18.1-28.7,12.3-44.9,14.4c-14.6,1.9-28.3,14.4-43.1,17.6
			c-2.3,0.5-4.6,0.7-7,0.7c-4.1,0-8.2-0.6-12.4-1.1c-4.2-0.6-8.3-1.1-12.3-1.1c-3.2,0-6.3,0.4-9.2,1.4c-7.1,2.5-13.6,3.3-20.1,3.3
			c-7.1,0-14.1-1-21.3-1.5c-40.2-3.2-80.4-6.3-123.3-9.7c-3.4,11.9-6.1,21.5-9.5,33.4c-0.2,0-0.4,0-0.7,0c-1.9,0-4,0.1-6,0.2
			c-2,0.1-4.1,0.2-6.1,0.2c-3,0-6.1-0.2-9-0.8c-12.1-2.4-24.2-5.3-35.4-9.9c-3.2-1.3-6.1-1.9-8.9-1.9c-9.6,0-16.6,7-24.2,12.9
			c-20.8-1.6-39-8.3-51.6-23.6c-15.2,7.5-2.7,18.3-7.8,26.1l-8.8,2.1c-11.2-4.7-22.5-9-33.9-13.1c-10.6,2.1-21.6,2.5-33.6,2.5
			c-4.2,0-8.5-0.1-13-0.1c-4.5-0.1-9.2-0.1-14-0.1c-4.7,0-9.5,0-14.6,0.2c13.6-5.1,26.4-9.9,38.5-14.4c-25.4-7.6-51.3-14-77.5-19.5
			c-10.3-2.2-21-5.7-29.4-11.5c-16.8-11.5-34.6-21.2-52.7-30.5c-2.4,0-4.9,0-7.3,0c-0.2,0-0.3,0-0.5,0c-9,0-15.7-2-21.3-12.2
			c-3.3-6-15-8.4-23.3-9.6c-29.7-4.3-59.7-6.5-89.4-11c-20.8-3.2-41.7-7.7-55.8-27l-0.6,0.7l0,0c-0.8-0.5-1.7-1-2.5-1.4
			c1,0.2,2,0.5,3,0.7c4.5-7.6,9.1-15.4,14.9-25.3c3.4,0,7.6-0.5,12-0.5c2.6,0,5.3,0.2,7.8,0.8c15.3,3.4,30.7,6.6,45.9,10.5
			c-12.1-10.6-23.5-22.1-34.2-34.4l0-0.3c-20-6.4-32.3-19.6-38.5-39.9c-3-9.7-8.6-19.1-15.1-26.9c-25.1-30-51.7-58.8-76.4-89.1
			c-13.4-16.4-25.5-33.7-33.4-53.5c-17.8-18.4-30.6-39.4-34.2-67.8c-1-8.1-6.6-15.9-14.9-20.3c0.6,2.1,1.2,5.1,2.5,9.2
			c-5.6-3.7-10.7-7.1-15.5-10.3c-8.3,10.1-5.4,21.5-1.4,32.5c3.7,10.1,9.4,18.4,9.6,30.7c0.4,45.8,25.1,79.3,53.1,111.2
			c11.8,13.4,31.2,20.2,34,41.7c-6.9,5.7-7.9,13.2-2.1,19.5c7.2,7.7,15.9,13.9,24.5,19.9c13.2,9.2,26.8,17.7,40.3,26.5
			c-11.3,1-22.6,2-34.8,3c-30.2-20.1-45.2-59.2-84.2-82.9c6.8,25.7,4.2,44.9,18.2,61.8c4.9,6,1.6,20.3,0.4,30.6
			c-0.3,2.4-6.8,4.1-13,7.5c-2.4-7-5.2-12.2-5.9-17.7c-2.2-16.6-7.9-29.2-24.5-35.1c-3.9-1.4-5.6-9.6-8.2-15.1
			c-10.7-5.1-19.6-10-23.3-24.9c-8.7-35.1-17.5-70.4-34.4-102.6c-7.1-13.5-10.4-28-24.6-38.2c-9.4-6.7-13.5-23.7-17.1-37
			c-8.5-32-15.7-64.4-22.5-96.9c-4.8-22.8-10-45.7-0.6-68.5c-2.4-6.6-4.8-13.2-7-19.8c-0.5,0.2-1,0.4-1.5,0.7c-0.5-3.4-1-6.7-1.6-10
			c-2.5-7.6-4.8-15.3-6.9-23.1c-10.2,11.1-11,14.6-11.2,58.6c-0.1,23.6,3.8,47.3,6.3,70.9c2.3,21.5,5.1,42.9,8,67.1
			c-5.6,1.7-11.8,5.6-17.4,5.6c-0.7,0-1.5-0.1-2.2-0.2c-7.9-1.6-10.8-10.4-9-19c8.8-41.6-7.7-81.6-7.2-122.7
			c0.1-5.5-5.5-10.8-7.5-16.6c-4.1-11.5-7.6-23.3-11.2-35c-10.4-10-6-23.2-6.4-35.2c-0.9-30.1-1.6-59.7-13.6-88.5
			C-3.4,891.3,3.8,849.2,20,817c9.1,23.9-0.2,46,3.6,66.6c3.7,20,10.3,39.4,15,57.1c3.6,1.6,6.7,2.3,9.3,2.3c3.8,0,6.6-1.6,8.4-4.4
			c-2.7-3.9-5.5-7.8-7.8-11.8c-7.4-12.7-10.1-27.3,0.5-38.6c8.8-9.3,12.2-18.5,12.6-27.7c0.1-1.5,0.1-3.1,0-4.6
			c-0.4-7.7-2.6-15.5-5.3-23.4c-2.8-8.6-8.8-16.2-10.4-24.9c-1.2-6.8,2.3-14.6,3.7-22c-3.5-3.7-7.1-7.4-10.7-11l5.4-4
			c2.3,4.5,4.7,9,7,13.5c2.9-8.6,6.8-17,8.7-25.8c6.7-31.6,12.8-63.3,19.1-95c3.2-31.5,6.5-62.9,25.1-91l4.5,0.5
			c0,1.9-0.1,3.7-0.1,5.6c14.5-30.4,32.5-58.6,51.2-86.5c5.4-8,14.8-13.1,22.6-19.7c8.3,11.6,1.6,18.1-3,23.1
			c-31.6,35.2-50.5,78.5-70.2,121.2c-5.1,11.2-7.7,23.7-10.9,35.7c-1.2,4.5,0.2,9.9-1.4,14.1c-6.2,16-9.6,32.4-11.6,49.1
			c-1.7,28.8-3.8,57.6-5.1,86.4c-0.3,5.7,4.1,11.2,5,17.1c1,6.6,3.3,14.2,3.8,20.9c3.4,2,7.1,4.3,11.1,6.7c0,14.2,0,29.6,0,48.3
			c15-23,22-42.8,24.7-69.3c2.1-20.4,3-40.6,11.5-60.1c6.2-14.3,6.8-30-6.2-43.9c-8.9-9.4-6.2-20.2,6.2-26
			c3.7-13.4,6.4-27.3,11.4-40.1c16.5-42,33.1-84.1,51.4-125.2c10.6-24,24.8-46.3,36.8-69.6c3.5-6.7,5.3-14.3,7.8-21.5
			c-4.1-3.8-8.3-7.7-14.1-13c12.3-13.6,23.2-25.6,37-40.9c-16.2-4.9-30.9-9.4-44.9-13.7c-3.8,6.3-7.4,12.8-10.7,19.5
			c-1.7,3.4-6.4,5.5-9.9,8.1c-13.8-17.1-14.1-17.9-5.2-29.3c1.3-1.7,2.6-3.3,3.9-5c-1-0.3-2.1-0.6-3.1-0.9
			c-5.6,12-8.2,16.7-12.4,16.7c-2.2,0-4.9-1.3-8.7-3.5c30.1-39.2,69.5-70.5,88.8-119.4c-2.7-1.6-5.1-2.2-7.4-2.2
			c-5.4,0-9.6,3.9-13.8,7.7c-4.2,3.9-8.5,7.7-14.1,7.7c-1,0-2-0.1-3.1-0.4c0.4-1.4,0.6-3,0.9-4.5c-4,1.2-8.5,1.8-13.6,1.8
			c-1.2,0-2.4,0-3.6-0.1c8.6-16.2,8.6-16.2,41.1-36.5l0.5,0.7c16.4-17.7,34.7-33.4,54.8-46.9c21.7-14.7,43.3-29.3,65.3-44.1
			c2.8-3.8,6-6.5,10.7-7.2c8.1-5.5,16.3-11,24.6-16.6l0-1.4c3.1-4.7,6.8-8,12.2-8c0.5,0,1,0,1.6,0.1c1.6-1.1,3.2-2.2,4.9-3.3
			c-2.7-0.8-5.2-1.2-7.6-1.2c-14.1,0-24.3,12-36.9,12.8c-5.1,2.1-10.1,4.1-15.2,6.2c4.4-2.9,8.7-5.9,13.1-8.8l0,0
			c5.9-13,15.3-21.1,28.5-25.4c6.5-2.1,12.1-7.1,18.2-10.8c3.4-1.6,6.9-3.1,10.3-4.7l-2.8-0.7l1.3-4l7.3,1.4l-0.2,0.7
			c2.2-1,4.4-2,6.6-3c-7.6,0.3-15.1,0.6-22.7,0.8c4.3-5.6,9.5-7.4,15.1-7.4c2.7,0,5.4,0.4,8.2,1c4.5-20.3,21.9-25,36.4-31.8
			c36.9-17.1,75.7-30.4,111.3-50.1C621.3-34.3,646.6-41,673-41c8,0,16.1,0.6,24.4,1.9c10-3.8,20.1-6.9,30-9
			c-4.2,3.8-8.4,7.3-12.5,10.6c32.5-6.5,65-12.9,97.4-19.7c6-3,12.7-6.1,20.1-9.9c-7.1-4-14.4-9.3-16.2-9.3c-0.1,0-0.3,0-0.3,0.1
			C801-61.5,782-67.1,762.2-60c2.9-7,3.4-12.3,6.2-14.3c11.6-8.3,24-15.5,38.1-24.5c7.5,3.6,14.9,5.1,22.5,5.1c12.3,0,25-4,38.4-9.7
			c21.3-9.1,45.3-11.2,68.1-16.9c5.9-1.5,11.5-4.9,17.3-7.4l-1.2-0.1c7.3-1.8,14.5-3.7,21.8-5.5l-1.2-0.1c15.4-3.4,31.7-4.5,46-10.6
			c7.3-3.1,14.6-4,21.9-4c4.2,0,8.4,0.3,12.6,0.6c4.2,0.3,8.4,0.6,12.5,0.6c7.4,0,14.7-0.9,22-4.2l8.3,2.8
			c5.6,5.6,11.5,7.5,17.7,7.5c6.9,0,14.1-2.4,21.5-4.8c6.8-2.2,13.9-5.7,21.3-5.7c5,0,10.3,1.6,15.7,6.3
			c-9.4,7.8-18.3,15.2-27.1,22.5l7.7-1.3l-1.2,6.1l-6.6-4.3c-10.6,2.3-16.9,3.7-22.3,3.7c-7.9,0-13.9-2.9-28.8-10
			c-1.7,4-3.6,7.9-4.9,11.9c-1,2.8-1.3,5.9-2.2,10.6c-2.4,0.9-4.8,1.8-7.2,2.7c0.7,0,1.5,0.1,2.2,0.2c0.9,0.1,1.9,0.1,2.8,0.2
			c-6.1,2.7-12.2,5.5-18.3,8.2c0.7-1.9,1.4-3.3,2.3-4.5c-12.9,4.8-26.1,9.7-39.2,14.5c-0.3,0.6-0.6,1.2-1,1.8
			c8.1,2.5,16.1,6,24.4,6.6c21.7,1.6,43.5,1.7,65.3,2.5c3.3,0.1,7.4,1.4,10.5,1.4c1.3,0,2.4-0.2,3.1-0.9c10.9-9.1,21.5-12.1,32-12.1
			c17.5,0,34.6,8.2,52,9.7l9.2,1.1c12.7,4.9,24,8.1,23.2,27.9c-0.3,7.1,3.8,14.2,8.9,21.2c6,1.3,12.1,2.5,18.1,3.7
			c0.4,7.7-2.7,10.1-6.2,11.6c0,0,0,0,0,0c3,4.1,10.2,5.1,15.8,7.7c5.1-16.9,8.8-23.2,16.7-23.2c2,0,4.3,0.4,6.9,1.2
			c23.6,6.7,46.6,15,69.8,22.7l8.1,3.8c11,24.4,37.7,33,52.9,53c4.4,5.7,7.6,12.9,9.5,19.9c1.8,6.9,2.7,14.2,3.6,21.2
			c10.8,4.3,21.3,9.3,31.7,14.5l2.2-2.5c3.4-10.1,5.5-20.6,9.8-30.3c1.2-2.6,7.7-3.2,12.1-4.5c7.6,11.1,17.6,20.9,15.7,36.4
			c-5.9,5.9-10.6,10.6-14,14.6c9.3,5.1,18.4,10.6,27.5,16.3c0.1-0.3,0.3-0.7,0.4-1.1c0.1,0.5,0.2,1,0.3,1.5
			c21.3,13.4,42.1,27.9,63.2,41.9c10.1,6.7,20.4,13.9,28.4,23.1c48.7,56,106.2,103.1,149.6,164.4c14.2,20.1,28.4,40.3,42.4,60.3
			c-3.2,4.3-6.4,5.9-9.4,5.9c-4,0-7.7-2.8-10.3-5.8c-13.1-15-26.5-30.3-37-47.4c-17.3-28.2-36.3-54.4-60.7-76.1
			c-5.7-5.1-11.5-10.6-15.7-17c-28.4-44-74.2-63-114.5-89.9c-3-2-7.2-3.2-10.9-3.2c-0.7,0-1.4,0-2.1,0.1c-8.3,1.1-8.3,6.9-5.4,13.3
			C1583.7,230.8,1611.4,252.3,1631.7,282.6z M1769.1,971l-0.7-1l-1.2,0.3L1769.1,971z M1755.9,1154.9c0.9-6,1.7-11,2.4-16l-6.8-0.3
			c-1.5,2.2-2.6,4.8-3.4,7.5c-0.2,1.4-0.5,2.9-0.8,4.4C1748.3,1151.1,1751.8,1152.7,1755.9,1154.9z M1747.1,744.5
			c3.1,8.7,4.2,17.3,4.3,25.9c3.5,10.2,6.7,20.6,9.1,31.3c2.5,11.3,5.3,22.5,8.1,33.8c11.5-37.8,14.1-74.4-2.7-111.8
			C1751.4,723.7,1743.7,735.2,1747.1,744.5z M1752.2,696.2c1.4-2.4,2.7-4.9,5-8.9l-8.8-6.6l-3.2,7.2L1752.2,696.2z M1739.7,647.2
			l2.4-2.8l-1.7-3.4l-2.2,2.8L1739.7,647.2z M1726.6,608.8l2.8-1.8l-1.7-2.8l-3.4,0.3L1726.6,608.8z M1694.2,544.9l-1.3-7.3
			l-3.5-1.6l-1.4,6.5L1694.2,544.9z M1672.4,1087.1l-0.5-1.7c-0.1,0.7-0.2,1.4-0.3,2.1L1672.4,1087.1z M1644.1,1316.4
			c1.3-5,4.3-9.3,7.6-13.5c4.1-10.7,7.2-21.8,8.8-33.4c-32,24.4-35.6,29.2-44.6,57.2C1625.4,1323.2,1634.7,1319.8,1644.1,1316.4z
			 M217.7,1449.5c4.6,1.4,9.5,2.8,20.4,6.1c-11.8-21.5-16.1-39.1-28.9-51.6C212,1419.2,214.9,1434.4,217.7,1449.5z M46.5,970.1
			l-8-1.1c-3.2,4.6-7.8,10.4-7.3,15.3c1.9,18.5,9.3,37.1-4,54.2c5.8,3.7,11.7,7.4,19,12c9.8-22.4-2.7-46.2,9.4-66.1
			C56.7,982.4,50.3,974.5,46.5,970.1z M104.4,971.8l0.4-1.3l-1-0.6C104,970.6,104.2,971.2,104.4,971.8z M104.4,926.5l-3.8-0.1
			c-1,6.9-1.8,13.9-2.4,20.9l3.5,2l3.7-1.8C105.4,940.5,105,933.5,104.4,926.5z M138.3,1226.1l-3.1-1.9l-0.3,3.3L138.3,1226.1z
			 M132.7,1034.5l0.2-4l-5.2,2.7l0.4,6.7L132.7,1034.5z M128.6,1042.8c1.7,4.5,3.5,8.9,5.3,13.3c0.9,2.3,1.8,4.6,2.8,6.9
			c1.1-2.2,0.6-5.4-2.4-10.2C132.2,1049.6,130.5,1046.2,128.6,1042.8z M134.8,994.7l-5.5,3.5c1.1,3.3,2.9,6.4,4.6,9.5l4.6-5.9
			L134.8,994.7z M135.5,1181.2l-6.3-3.4l-5.1,6.2c1.2,6.8,3.6,13.3,5.6,19.9l9.4-2.6C138,1194.6,137.3,1187.7,135.5,1181.2z
			 M232,617.3l0.7,3.7l6.5-0.4l-0.6-3.6L232,617.3z M237,593.5l2.9,4.9l3.8-5.8L237,593.5z M254.6,561.3c-3.1,10-6.1,20-9.2,30
			C260.7,587.2,262.2,576.4,254.6,561.3z M258.1,425.7c-4,4.1-8.1,8.3-12.1,12.4c5.2-2.3,10.4-4.6,15.6-6.8L258.1,425.7z
			 M269.6,1242.5l-4.6,5.7c1.4,3.9,3.8,7.3,6,10.8c0.4-4.2,0.9-8.4,1-12.6L269.6,1242.5z M272,1262.4c0.9,4.1,1.7,8.2,2.6,12.2
			c3.4,3.1,6.8,6.3,10.2,9.3c0.3,0.1,0.6,0.1,1,0.2C280.5,1275.9,276.2,1269.1,272,1262.4z M288.5,448.6l5,3.9c1.5-4,2.9-8,4.4-12
			C294.7,443.2,291.6,445.9,288.5,448.6z M300,438.5c9.6-1.3,19.4-2,28.8-4.3c3.5-0.9,6.7-2.1,9.6-3.8c0.7-9.9,6.6-17.5,15.3-22.9
			c0.3-0.2,0.7-0.4,1-0.6c0.1-0.2,0.1-0.4,0.2-0.6C320.3,416.8,318.3,417.8,300,438.5z M436.6,1510.4l-1.7-2.3l1.8,4L436.6,1510.4z
			 M461.5,1510.1l7.6-0.6l-4.5-5.9l-7.2-0.3L461.5,1510.1z M474.3,467.6c-9.9,11.9-18.9,24.5-27.8,37.3c3.6-2.4,7.3-4.7,11.2-6.5
			C473.3,491,475.4,480.4,474.3,467.6z M480.1,1509.3c-3,0-6.3,0.4-9.6,1.1c0.7,2.9,1.6,5.5,2.7,7.8c1.1-0.1,2.3-0.2,3.4-0.3
			c6.1-0.6,12.3-1.1,18-1.7C491.2,1511,486.1,1509.3,480.1,1509.3z M548.1,1553.2l1.6,3.8l4.2,1.1l0.4-4.1L548.1,1553.2z
			 M616.7,12.8l-2.6,2.1l1.1,2.1c0.3,0.1,0.6,0.2,0.9,0.3l3.7-3.2L616.7,12.8z M656.4-2.9c-1.6,0.7-3.1,1.3-4.7,1.9
			c-3.6,1.8-7.2,4.5-10.6,8.4c3.7,0.8,7.1,1.2,10.3,1.2c11.9,0,21.1-5.3,31.5-14.6C673.3-5.2,664.6-5.6,656.4-2.9z M770.2,1631.8
			c-5.9-3.7-12.4-6.4-18.8-9.1l-4,1.4l-0.7,7.6c5.2,4.4,11,8.2,17.1,11.4l7.3-3.3L770.2,1631.8z M794.7,1637.9l0.7,2.9l2.1-1.7
			L794.7,1637.9z M930.9,1677.4l3.4-1.3l-1-2.7l-3.2,1.2L930.9,1677.4z M930.7-87.6c-0.8,0-1.6,0.1-2.2,0.3
			c-5.3,1.8-10.5,3.7-15.8,5.6c4.9-0.8,9.8-1.4,14.7-1.4c3.4,0,6.7,0.3,9.9,1c0.7,0.1,1.4,0.3,2.1,0.4l0.5-2
			C938.6-85.9,934.1-87.6,930.7-87.6z M957.6,1680l-3.3,1.2l1.6,3.7l3.3-1.2L957.6,1680z M1084.2,1619.6l-0.9-3.2l-2.9,2.6
			L1084.2,1619.6z M967.3-98.1c4.4,5.3,7.6,10.1,10.2,13.7c4.2-1.2,8.4-2.5,12.5-4c2.4-0.9,4.9-1.7,7.3-2.5
			C988.6-93,978.9-95.3,967.3-98.1z M1057.9,1413.3c-0.8,0.3-1.6,0.5-2.6,0.5c-4.4,0-10-3.1-14.5-5.2c-4.6-2.1-8.7-5.2-13-7.7
			c-5.9,1-11.7,1.9-17.5,2.9c2.9,5.1,7.9,8.9,11.6,13.2c3-0.3,5.9-0.4,8.8-0.4c2.7,0,5.3,0.1,7.9,0.4c4.3,0.4,8.5,0.7,12.7,0.7
			c14.3,0,27.7-2.6,40.6-6.7c-4.5-0.9-9-1.4-13.7-1.4C1071.8,1409.4,1065,1410.5,1057.9,1413.3z M1085.8,1369.1
			c-2.2,1.6-4.3,3.4-6.4,5.5c1.1,0.8,2.2,1.6,3.4,2.4c11.7-1.2,20-2,26.6-2.2C1101.4,1371.1,1093.6,1369.6,1085.8,1369.1z
			 M1227.9,1561.5c-19.9,2.5-39.8,6.7-59.6,11.1c-3.6,0.8-7.2,5.7-9.3,9.4c-1.1,2,1.1,5.5,2.2,10.1c3.4,1,7.3,3.1,11.3,4
			c2.8-3.4,5.7-6.7,9.3-8.7c15.8-8.8,31.7-17.6,47.6-26.2C1228.9,1561.4,1228.4,1561.4,1227.9,1561.5z M1300.2,1553.4
			c-4.2-0.8-8.8-1.8-13.3-2.3c-0.6,0.3-1.3,0.6-1.9,0.9c-34.8,15.2-69.8,29.8-104.8,44.4c28.5-2.4,57.1-4.9,85.4-9.1
			c12.1-1.8,24.1-7.3,35.6-12.4c3.2-1.4,6.3-7.7,6.1-11.4C1307.1,1559.7,1303.4,1554,1300.2,1553.4z M1341.2,1546.3
			c1.5,1,3.6,1.5,5.8,1.5c9.2,0,22.4-7.8,24.2-15.9l-0.9-4.1l-2.9-3.4c-1.8-0.8-3.7-1.1-5.7-1.1c-9.8,0-21.2,8.8-22.1,18.8
			L1341.2,1546.3z M1346.8,5c3.5,23.9,12.1,29.5,40.1,31.2C1373.4,25.7,1363.4,17.9,1346.8,5z M1407.3,58.3l-5.4,3l2.7,2.9l3.2-1.8
			L1407.3,58.3z M1413.1,1534.2l-0.9,4.2c3.9,0.9,7.9,1.5,11.9,2.2c0.2-2.6,0.4-5.3,0.7-9.9
			C1420.4,1531.9,1416.6,1532.7,1413.1,1534.2z M1548.5,211.1c0.3,1.1,0.7,2.2,1,3.4c1.4-1,2.7-2.2,4.1-3.3
			C1551.9,211.2,1550.2,211.2,1548.5,211.1z M1346.3,1532.7l0.3-2.5l2.4,1.5L1346.3,1532.7z M205.3,453.4l3.7-1.2l-0.4,3.2
			L205.3,453.4z M200.3,399.9c0-0.1,0.1-0.2,0.1-0.2c0.3-0.2,0.5-0.4,0.8-0.6c0.2,0.2,0.4,0.4,0.5,0.7
			C201.2,399.8,200.8,399.9,200.3,399.9z M104.5,572.4c0.6-32.9,16.2-61.4,31.6-90.1c8-14.9,17.4-28.6,22.4-45.6
			c5.5-18.6,19.5-34.1,41.8-36.8c-26.8,59.4-56.6,117.3-91.3,172.9L104.5,572.4z M1841.9,916.8c-0.2-0.5-0.4-1-0.6-1.4
			c0.1-0.6,0.1-1.2,0.2-1.9c0.3,0.6,0.5,1.3,0.8,1.9C1842.1,915.8,1842,916.3,1841.9,916.8z M1840.4,994.4
			c-1.2-17.3-3.2-34.5-3.3-51.9c0-8.5,3-17.1,4.9-25.7C1852.9,941.6,1851.4,967.4,1840.4,994.4z M328.9,1530.4
			c9.9,5.3,19.8,10.5,29.6,15.9c9.7,5.4,19.3,10.9,28.9,16.4c-16.3-3.7-32.9-6.8-48.7-12C333.3,1548.9,329.8,1540.6,328.9,1530.4z
			 M307.4,1431.3c0.2,0.2,0.4,0.4,0.6,0.6c-0.4,0-0.8,0.1-1.2,0.2c0-0.1,0-0.2,0-0.2C307,1431.7,307.1,1431.5,307.4,1431.3
			L307.4,1431.3z M350.5,1451.3c-15.7-2.6-30.3-8.1-42.5-19.4c2.4-0.3,4.8-0.5,7.1-0.5C329.6,1431.4,341.6,1437.4,350.5,1451.3z
			 M351.6,1451.4l3.2,0.1l-3.9,0.3c-0.1-0.2-0.2-0.3-0.3-0.5c0.3,0.1,0.6,0.1,1,0.2L351.6,1451.4z M371.1,1497.6
			c0.7,0.5,1.3,0.9,2,1.4c-0.9-0.2-1.8-0.4-2.6-0.6c-0.3-0.2-0.7-0.4-1-0.7C370,1497.7,370.5,1497.6,371.1,1497.6L371.1,1497.6z
			 M412.8,1513.9c-3.9,0.2-8.2,1.4-11.9,1.4c-1.6,0-3.2-0.2-4.6-0.9c-8.2-4-15.6-10-23.2-15.5c13.3,2.8,26.6,5.7,39.9,8.5
			L412.8,1513.9z M353.8,129.6l6.2-3.6l-3,4.6L353.8,129.6z M361.3,124.2l0.6,0.8l-1.8,1.1L361.3,124.2z M361.3,124.2
			c1.4-0.6,2.9-1.2,4.4-1.8c-1.2,0.8-2.5,1.7-3.7,2.5L361.3,124.2z M1086.6-103.5c-0.2,0.2-0.4,0.4-0.6,0.6l0,0c-0.2,0-0.5,0-0.7,0
			c-0.4,0-0.8,0-1.2,0c0.5-0.2,0.9-0.4,1.4-0.6C1085.8-103.5,1086.2-103.5,1086.6-103.5z M1120.2-104.5c-5.2,2.9-9.8,3.8-14.2,3.8
			c-7.1,0-13.3-2.4-19.4-2.8c4.7-4.5,9.6-6.6,15.1-6.6C1107.1-110.1,1113.1-108.1,1120.2-104.5z M1508.2,73.2
			c-0.2,0.1-0.5,0.2-0.8,0.2c0-0.1-0.1-0.1-0.1-0.2L1508.2,73.2z M1221.7-90.4h3.5l-1.8,1.9L1221.7-90.4z M824.9-107.7l1.7-7
			l7.7,2.3l-0.9,4.1L824.9-107.7z M738.6-56.2l1.3-3.6l6.2,3.4l-1.7,3.5L738.6-56.2z M289.7,166.5v3.1l-3.3-1.5L289.7,166.5z
			 M172.1,318.5c-2.4-4.1-4-5.7-3.7-6.4c5.4-10.2,7.6-23.4,22.7-25l3.1,2.6C196.2,307,180.2,308.5,172.1,318.5z M176.9,267.8
			c-1.3,0-5.2-1.8-9.9-3.3c4.3-5.2,7.6-9.9,11.8-13.5l8.1,1.8c-3.1,5-5.9,10.2-9.6,14.9C177.3,267.8,177.1,267.8,176.9,267.8z
			 M154,407.1l3.8-1.3l1.4,4l-3.6,1.1L154,407.1z M139.7,332l2.8,1.8l-1.5,2.4L139.7,332z M87.8,535.8c0.2,0,0.4,0,0.6,0.1
			c7.4,3.5,4,9.7,1,14.8c-2.2,3.8-5,7.2-7.6,10.7l-7.2-3c1.4-5.3,1.9-11.2,4.4-15.8C80.8,539.7,85.6,535.8,87.8,535.8z M109.9,495.9
			c1.3-3.8,2.3-7.7,4.3-11.1l6.9,0.1l-1.7,4.2C116.3,491.5,113.1,493.6,109.9,495.9z M108,497.4c0.2-0.2,0.5-0.5,0.8-0.7
			c0.4-0.3,0.8-0.5,1.1-0.8c-0.2,0.5-0.3,1-0.5,1.5C108.9,497.4,108.5,497.4,108,497.4z M91.4,509.4c-3.2,0-6.8-2-12.9-5.6
			c0.9-5,3.3-6.1,6.1-6.1c1.1,0,2.2,0.2,3.4,0.3c1.1,0.2,2.3,0.3,3.4,0.3c0.3,0,0.5,0,0.8,0c5.3-0.5,10.6-0.6,15.9-0.9
			C99.5,505.8,95.7,509.4,91.4,509.4z M111.9,364.1l2.2-7l3.8,1l-2,7.6L111.9,364.1z M91.9,389.4l1.7-4.1l5.6,2.1l-3.5,2.9
			L91.9,389.4z M74.4,415.9l3.6-0.3l0.7,3.9h-5.9L74.4,415.9z M50.7,407.1l1.3,2.9l-2.4,0L50.7,407.1z M47.1,692.1
			c0.6,8.6,1.3,17.2,2,27.4C35.4,710.6,35.4,710.6,47.1,692.1z M33.1,446.6l1,3.5l-2.8-0.5L33.1,446.6z M27.5,1127.3
			c-2.2,0.7-4.7,1.1-7.3,1.1c-3.1,0-6.1-0.6-8.2-2.1c-4.4-3.2-8.3-9.7-9.3-15.3c-6.7-36-12.6-72.2-18.8-108.4
			c3.5,4.4,8,8.5,9.6,13.5c10.6,33.8,17.8,69,36.9,99.4L27.5,1127.3z M-16.3,1000.7c0.1,0.6,0.2,1.2,0.3,1.8c-0.3-0.4-0.7-0.8-1-1.2
			L-16.3,1000.7z M-141,913.4l3,0.2l-1.7,3.6L-141,913.4z M9.7,1487c-7.9-3.5-10.5-8.6-1.5-19.4C8.9,1475.9,9.3,1481.5,9.7,1487z
			 M9.8,1487.8c0-0.3,0-0.5-0.1-0.8c0.2,0.1,0.4,0.2,0.6,0.3L9.8,1487.8z M24.8,1153.8l-2.9-0.4l1.8-3.2L24.8,1153.8z M77.4,1575.5
			l-0.9-2.8l2.3,0.2L77.4,1575.5z M98,1295.9l-7.3,1.3c-2.2-11.7-4.5-23.4-6.7-35.1l4.9-1.3C91.8,1272.5,94.9,1284.2,98,1295.9z
			 M180.8,1473.7c-9.7-6.8-15-8.8-17.8-12.8c-8.8-12.7-17.2-25.8-24.5-39.4c-3.5-6.6-6.3-14.7-6.2-22.1c0.6-22.8,2.7-45.7,4.6-73.5
			C151.8,1375.9,165.2,1421.2,180.8,1473.7z M194.2,1499.8l-3.1,1.5l0.5-3.6L194.2,1499.8z M336.1,1592.6l-5.1,5.9
			c-20-11.4-38.2-25.5-56.3-45.1C304.8,1555.8,304.8,1555.8,336.1,1592.6z M415.3,1605.2l-5.1,4.1l-3.2-1.6l1.7-6.3L415.3,1605.2z
			 M474.9,1617.3l-3.1,0.9l0.5-2.8L474.9,1617.3z M1213.4,1728.2c-14.3,7.1-28.1,10.8-42.4,10.8c-15.6,0-31.8-4.4-50.1-13.4
			c14.1-4.3,28-6.5,42.1-6.5C1179.5,1719.2,1196.1,1722.1,1213.4,1728.2z M1393.5,1599.3l7.1,2.8l-4.1,7.5l-8.1-0.6
			C1390,1605.6,1391.2,1602.1,1393.5,1599.3z M1324.9,1709c-0.2,0.1-0.3,0.1-0.5,0.1v0c-0.3,0-0.6,0-0.8,0c0.3-0.3,0.6-0.7,0.8-1
			C1324.6,1708.5,1324.7,1708.8,1324.9,1709z M1462.6,1678.4c-37,17.7-75.1,32-115,40c-1.9,0.4-3.6,0.6-5.3,0.6
			c-7.5,0-13.1-3.6-17.4-9.9c49.1-14.2,98.3-28.5,147.5-42.8C1475.1,1675.4,1467.1,1676.3,1462.6,1678.4z M1311.8,1721.7
			c-19.9,5.4-40,9.8-60.3,9.8c-7.1,0-14.1-0.5-21.2-1.8l-3.3-4.8c31.2-16.8,64.1-14.5,96.6-15.7
			C1319.8,1713.9,1316.4,1720.4,1311.8,1721.7z M1510,1650.1l-2.9,2.4l-2-5.5l3.8-0.6L1510,1650.1z M1548.8,1614.8
			c-3.3,5.1-6.6,10.1-10,15.2l-7.1-4.5c4.7-4.4,9.5-8.8,14.2-13.2L1548.8,1614.8z M1707.5,1401.2c-1.6,3.5-2.3,7.8-4.9,10.2
			c-2.7,2.5-7.2,3.1-13.7,5.5c3.3-6.5,4.5-11.2,7.5-13.6C1698.9,1401.3,1703.6,1401.9,1707.5,1401.2z M1726.5,1365l-2.1,3.7
			l-3.4-1.9l0.3-3.9L1726.5,1365z M1745.1,1320.8l-3.5,1.1l2.8-4.8L1745.1,1320.8z M1759.1,1286.6l-1.5-2.7l3.6-0.6L1759.1,1286.6z
			 M1772,1253.1l-4.1,1.2l1.9-3.9L1772,1253.1z M1776.7,1225.1l-2.9,0.8l1.5-2.8L1776.7,1225.1z"/>
	</g>
	<g id="words" transform="translate(501.000000, 632.000000)">
		<path id="Shape_1_" class="st1" d="M1004.2,549c-3.3,2.7-43.5,41.2-41.4,42.3c-6.7,10.9-16.5,14.1-18.8,27.7
			c-2.3,15.8-3.5,32.2-6.4,48c-6.2,30-15.2,59.4-26.4,87.7c-8.9,23.4-23.4,53.4-44.9,67.9c-8.8,5.4-18.1,6.4-26.8,5.2
			c-4.9-0.6-7.7-0.6-12.6-2.8c-4.4-1.7-11.9-13.2-4.9-6.6c-12.5-14.9-18.3-34-18.7-52.6c-0.2-9.5,1.1-17.3,2.5-25.2
			c3.3-1,6.7-24.5,12.1-27.2c0,0,0,0.1,0,0.1c5.4-9.3,49.2-58.6,55.3-63c-1.3,3.3,1.9-1.2,3.3-2.8c-0.9,0.6-1.8,1.4-2.7,2.3
			c0-3.8,3.3-3.3,2.2-4.4c1.1-2.7,7.2-9.2,9.4-10.3c0,1.1-0.6,1.6-0.6,2.7c0-1.6,16.5-14.6,18.7-16.8c0-0.5,13.2-11.9,9.4-11.4
			c0.8-0.8,2.1-1.8,3.2-2.6c-0.4,0.5-0.8,1.1-1,1.5c1.1,1.1,9.9-8.7,9.9-9.8c-1.1,0.5-2.7,1.1-4.4,0.5c13.2-13.5,9.7-49.1,10.9-67.6
			c1.2-12.6,2.4-24.6,3.6-37.1c0-1.6,1.3-24-0.4-22.9c-3.9,3.2-4.4,9.2-6.7,12.5c-2.8,6-6.7,12.5-10,18.5c-9.4,18-19.4,34.3-31,50.6
			c-8.9,13-16.1,28.3-31.5,34.7c-19.8,8.6-21.9-4-23.4-20.4c-0.2-2.4-0.2-4.7-0.3-7.1c-10.9,23.7-23.7,48.9-37.9,65.2
			c-11.6,13.6-28.7,27.6-45,20.4c-23.2-11.1-29.5-58.6-28.1-112.9c-4.4,8.9-9.1,17.2-12.1,22.5c-8.9,15.2-20,42.4-28.9,58.2
			c-8.9,15.8-17.8,31.5-28.3,45.7c-6.1,9.2-21,25-33.6,22.7c-12-1.7-22.3-19.3-24.9-29.7c-3.7-14.8-5.7-39.9-0.6-55.2
			c1.6,7.1,1.7-7.6,2.3-9.8c0.6-4.4,2.8-12,4-17.4c2.8-11.4,13.4-32.7,11.3-44.2c-3.8,2.2,3.3-4.9,0.1-12.6
			c-11.6,15.2-22.2,36.4-33.8,54.3c-7.8,12-17.8,31.5-34.2,31.4c-10.4-0.6-20.1-11.1-24.4-20.4c-5.5-11.1-7-24.8-6.2-39.1
			c-1.1,2.1-2.2,4.2-3.3,6.2c-10,18.5-22.2,37-35.4,53.8c-10.5,13-19.4,27.2-33.7,35.8c-30.2,18.9-54.1-9.7-59.8-39.3
			c-2.1-10.9-2-23.5-1.4-33.3c1.3-22.9,2.5-41.5,7.6-63.3c-31,47.8-52.9,114.8-86.8,112.4c-15.3-1.8-22.3-18.2-23.2-34.1
			c-0.4-4.1,2.2-27.5,8.6-55c-28,43.7-80.3,119.6-118.5,114.2c-53.5-8.1-43.5-104.7-25.7-140.1c2.2-4.3,4.7-8.3,7.2-12.2
			c-4.1,3.3-8.3,6.5-12.6,10c-13.2,11.4-25.3,23.8-39.7,34.6C89.3,534,75.6,541,72.2,547c-3.9,5.4-5.6,16.3-6.7,22.3
			c-5.7,30.5-34.6,81.7-39,86.5c-8.3,8.7-15.5,17.9-29.1,15.1c-46.4-9.1-50.2-82.9-51-119c-2.7-77.6,38.3-206.2,99.1-282.2
			c3.9-5.4,6.1-6.5,12.1-11.4c18.7-14,32.3-8.5,30.5,14.5c-3.6,44.2-38.9,141.7-79.7,189.5c-9.9,11.4-25.9,21.1-30.9,35.3
			c-7.8,21.8-6.4,52.4-5,75.3c2,23.5,4.5,48.7,14.2,70.6c8.1,17.5,16.9,11.6,27.4-2c8.8-10.9,12.7-19.6,18.3-32.6
			c0.6-2.2,17.9-47.4,14.1-46.9c-0.6,1.6-1.1,3.3-1.7,4.9c-0.5-1.6-1.1-3.8-0.5-5.5c-30.2,9.6-77-14.3-58.7-49.1
			c6.7-12.5,22.7-30.4,34.8-36.9c5.5-2.7,39.4-8.4,49.1,15.1c1.1-1.1,3.6,24.1,3.6,25.7c8.8,0.1,28-17.8,34.6-22.1
			c15.9-10.1,30.7-19.4,48.3-21.5c10.3-12.3,22.8-22.1,39.1-29.2c18.7-8.6,43.2-6.2,42,19.5c-1.8,21.3-19.5,43.5-31.1,60.9
			c-16.6,25.5-50.1,41.1-50.7,44.9c-3,27.8,0.7,48.1,28.1,42.3c9.3-1.6,17.6-10.2,24.8-17.3c34.6-32.4,77.4-101.6,90-117
			c13.4-34.1,33.4-62,61.8-55c8.2,2.2,16.4,4,14.4,43.8c-2.7-2.8-3.9,7.6-10.5,7.6c2.9-15.3-5.1-47-23.8-34.1
			c-17.6,11.3-27.2,51.1-33.9,72.4c-2.3,8.7-19.1,67,0,66.1c24.6-1.4,78.6-117.4,88.1-140.2c1.7-3.8,11-4.8,19.7-4.7
			c8.8,0.1,15.8,8.3,13.5,17.6c-5.7,28.9-12.5,58.3-16.6,87.8c-2.9,17.5-5.2,34.4-4.8,51.9c3.5,105.5,108.5-88.7,117.4-113.8
			c0.2,0.2,0.3,0.3,0.4,0.4c0.2-0.8,0.5-1.7,0.7-2.6c1.1-3.8,1.2-13.6,2.9-16.4c1.7-2.2,3.8-1.6,5.5-2.7c4.4-2.1,13.7-4.3,12.5,3.9
			l6,1.1c7.6,9.3-3.1,39.8-4.8,50.2c-3.4,16.9-5.2,33.3-7,50.2c4.4,0.6,16.6-18.4,18.8-21.1c6.6-7.6,12.7-14.1,18.2-22.8
			c10-15.2,22.7-33.7,31-46.7c9.4-14.7,19.4-35.3,37.9-25.4c19.1,10.5-0.3,39.9-4.8,56.8c-9,33.3-20.2,64.3-26,99.2
			c-1.2,9.3-10.8,55.1-2.1,61.2c10.9,7.2,32-35.8,39.7-42.3c-1.2,7.6,2.2-2.7,3.3-4.3c0,0,8.3-15.8,8.9-13c1.1-0.5,3.9-8.7,5-10.3
			c1.7-2.2,11.6-14.7,7.2-13c1.1-3.8,25.6-52.8,35.6-70.2c4.6-9.5,8.1-12.5,10.5-13.4c3.8-49.1,11.7-98.2,17.4-127.3
			c1.7-11.5,2.9-15.8-7-14.8c-62.9,5-48.7-3.1-4.8-15.9c3.8-1.1,14.8-2.1,17.5-5.3c4.4-4.3,5.1-18.5,6.7-24
			c11.3-45.8,28.7-35.8,28.6-15.6c-0.1,12-2.4,24-4.7,36c19.7-0.9,74.5-8.1,70.5,3.3c-5.6,16.3-71.7,3.2-76.8,34.3
			c-5.2,32.7-10.9,65.5-15.6,98.2c-2.3,18-20.3,149.5,4.7,165c16.6,10.2,55.6-63.2,74.2-103.2c3.2-21.8,9.3-43,14.1-65.4
			c2.8-12-4.8-19.2,5.6-21.3c3.3-0.5,13.1,1.2,14.8,0.1c0,1.1-0.6,2.2-2.2,2.2c1.1,3.8,6,0,5.4,3.9c0,2.5-2.7,5.8-3.6,8.5
			c0.4,0.1-1,11.4-1.5,12.8c-1.7,9.3-3.4,18.5-5.7,27.3c-3.4,15.3-7.4,30.5-9.7,46.4c-1.7,12.6-4.6,25.6,8.1,12.6
			c22.6-22.2,38.2-56,54.8-83.1c5-8.7,10-17.4,15-26.1c1.7-3.3,2.3-9.8,5.6-12.5c0,0.6,0,1.1,0,1.6c1.7-2.7,6.1-7.6,0.6-9.8
			c2.8-1.6,14.8-1,15.9-0.4c7.6,4.4,8,20.8,7.4,29c-0.3,41-5.6,83.5-10.9,124.5c16-17.9,35.3-33,56.7-47.1
			c-1.1,1.1-35.8,29.8-34.2,32.5c9.9-5.4,19.3-16.2,26.5-23.3c11.6-12.5,26.4-22.2,41.3-30.8c4.3-2.5,2.8-1.7,0.8-0.5
			c3.2-2.2,15.3-10.7,16.8-9.7C1060.9,501.4,1007.5,545.8,1004.2,549z M824.8,821.3c-0.5-1.6-1.1-1.6-2.2-2.2
			C823.7,819.6,824.3,820.7,824.8,821.3z M866,658.8c1.6-0.5,1.6-1.1,2.8-2.7C867.7,656.7,867.1,657.7,866,658.8z M874.3,656.2
			c0.4-0.3,0.9-0.9,1.6-2.2C875,654.5,874.4,655,874.3,656.2z M881,648.4c-1.5,1.1-3,2.5-4,4c2.2-0.5,3.8-2.2,4.4-4.3
			C880.4,648.4,880.7,648.5,881,648.4z M882.6,639.8c0-0.2,0.2-0.4,0.5-0.6C882.8,639.3,882.6,639.3,882.6,639.8z M882,647.5
			c0.6-0.5,1.1-0.5,1.7-2.2C883.1,645.8,882,646.4,882,647.5z M883.7,638.2c0,0.3-0.1,0.5-0.1,0.6
			C883.8,638.6,883.9,638.4,883.7,638.2z M886.4,641.5c-0.6,1.1-1.1,1.6-1.7,2.7C885.8,644.8,888.6,641,886.4,641.5z M895.8,632.3
			c-0.5,0.5-0.7,0.7-0.8,0.8c-2.5,2.4-5,4.9-7.4,7.3c3.8,1.1,14.9-13,16-15.2C901.3,624.7,897.4,630.7,895.8,632.3z M885.6,670.4
			c-11.6,13-24.3,26-35.9,39.6c-14.9,16.8-57.5,74.9-18.2,89.4c26.7,10.1,47.3-30.2,55.1-48.2c14.5-34.3,25.7-71.3,32-107.3
			c-0.1,0.7-0.3,1.2,0-0.1c0.3-1.3,0.1-0.7,0,0c1.1-2.7,1.7-5.4,1.7-8.2C907.2,642.2,895.6,659.6,885.6,670.4z M926.2,595.9
			c-1.1,0.5-0.6,1.6-0.6,2.7C926.7,597.6,926.2,597,926.2,595.9z M45.9,358.3c16.1-31,24.6-62.1,30.3-96.5
			C65.2,260.1,5.1,398.4,1.7,408.2C-29.6,493.2,31.4,387.1,45.9,358.3z M51.3,499.3c0.2,0,0.3,0.1,0.4,0.2
			C51.6,499.3,51.4,499.2,51.3,499.3z M52.2,500.8c-0.4,0.9-1.5,1.7-1.5,1.7c1.2-13.1-13-17-24-12.2c-11,5.4-16.6,23.9-18.9,35.4
			c-1.8,13.1,2,25.1,17.9,22.5c7.1-1,23-9.1,26.4-15.6C53.5,529.4,53.5,506.9,52.2,500.8z M179.6,530.4c10.5-9.7,19.3-20.6,27.6-32
			c3.3-4.9,25.5-37.5,12.9-43.6c-3.8-1.7-23.1,10.2-25.8,12.4c-10.4,7-16.5,17.3-22.7,28.2c-11.6,20.1-15.7,46.8-13.5,49.1
			C158.1,544.4,149.2,560.7,179.6,530.4z M644.2,633c-1.7,3.8-1.7,4.9-0.6,3.3C644.7,635.7,645.3,634.6,644.2,633z M669.6,597.1
			c-0.6,0.5-0.6,0.5-1.1,1.1C670.2,598.8,670.2,598.2,669.6,597.1z M988.3,548.4c2.2,0,2.8-2.2,4.4-3.8
			C992.2,543.5,988.4,547.3,988.3,548.4z M993.3,542.9c1.6,0.6,2.2,0,2.2-1.6C995,541.9,994.4,542.4,993.3,542.9z M895,633.1
			c0.3-0.3,0.5-0.5,0.8-0.8C897.1,631,894.5,633.6,895,633.1z M881,648.4c0.1-0.1,0.3-0.3,0.4-0.4
			C881.4,648.2,881.2,648.3,881,648.4z M806.3,738.3c-0.2,0.8-0.3,1.7-0.5,2.5c0,0-0.1,0.1-0.1,0.1
			C805.9,740.1,806.1,739.2,806.3,738.3z M806.3,738.3c0.8-4.5,1.7-9,2.3-13.8C810,728.1,807.6,733.9,806.3,738.3z M918.4,605.7
			c-0.3,0.3-1.2,0.9-2.3,1.7C916.7,606.7,917.5,606,918.4,605.7z M1038.7,506.7c-0.3,0.2-0.6,0.4-0.8,0.5
			C1033.2,509.9,1036.3,508.1,1038.7,506.7z M637.7,172.1c12.1,5.8,22.2,14.9,30.5,27.2c13.3,20.1,12.7,58.3-14.6,88.8
			c-28,31.1-75.6,53.8-111.2,60.3c-24.1,4.5-39.4,3.9-53.4-3.2c-12.7-6.5-24.2-17.5-32.4-29.8c-9.5-14.3-15.9-24.6-1.3-66.1
			C480.7,176.6,529,82,576.7,9.4c-25.4-1.3-38.8-15.6-43.2-25.9c-3.2-7.1-1.3-10.4,6.4-11c44.5-3.9,101.7-35.6,144.2-38.2
			c32.4-1.9,63.5,8.4,75,52.5c11.4,43.4-0.6,79.7-22.2,108.2C718.4,118.9,684.7,151.3,637.7,172.1z M484.8,288.1
			c-6.8,22,0,29.5,19.9,27c39.7-5,93.1-30.8,119.8-64c23-28.9,23-57.1-33.5-60.3c-8.7,1.9-17.4,3.1-26.1,4.4
			c-17.4,1.9-29.8,0-38.5-4.4C509.7,223.4,494.1,256.7,484.8,288.1z M732.9-4.3c-12.8-33.3-76.4-3.8-120.8,10.2
			c1.3,14.1-3.2,33.3-19.3,62.7c-12.8,23.7-31.5,53.8-50.1,86.4C670,125.7,749,39.2,732.9-4.3z M465.1,111.6
			c-1.9,5.1-6.5,8.9-14.2,3.8c-14.9-9.5-25.2-29.2-15.5-60.9c10.3-33.6,33.6-69.8,18.7-85C436-49.5,337.8,1.8,279.6,96.3
			c-56.9,92.6-50.4,186.5-18.7,211.8c41.4,33,109.9-9.5,159-104c3.2-7,10.3-7,13.6,1.3c16.2,42.5-25.2,90.1-52.4,109.1
			c-45.9,32.3-100.2,31.7-135.1,13.3c-29.1-15.2-54.3-54.5-55.6-106.5C187.9,86.8,302.9-28,375.3-55.2c34.9-13.3,66.6-15.9,87.2,1.9
			c14.2,12.1,29.1,30.4,34.3,46.3c5.8,18.4,3.9,36.2-5.8,55.8C481.3,68.4,472.2,93.2,465.1,111.6z"/>
	</g>
</g>
</svg>
