<?xml version="1.0" encoding="UTF-8"?>
<svg width="800px" height="800px" viewBox="0 0 800 800" version="1.1" xmlns="http://www.w3.org/2000/svg" xmlns:xlink="http://www.w3.org/1999/xlink">
    <title>instagram</title>
    <g id="instagram" stroke="none" stroke-width="1" fill="none" fill-rule="evenodd">
        <path d="M400.066927,250.154948 C314.935862,250.154948 246.268823,316.951823 246.268823,399.764323 C246.268823,482.576823 314.935862,549.373696 400.066927,549.373696 C485.197993,549.373696 553.86503,482.576823 553.86503,399.764323 C553.86503,316.951823 485.197993,250.154948 400.066927,250.154948 Z M400.066927,497.029946 C345.052983,497.029946 300.078081,453.410156 300.078081,399.764323 C300.078081,346.11849 344.91913,302.498698 400.066927,302.498698 C455.214723,302.498698 500.055773,346.11849 500.055773,399.764323 C500.055773,453.410156 455.08087,497.029946 400.066927,497.029946 L400.066927,497.029946 Z M596.029003,244.035156 C596.029003,263.436198 579.966537,278.93099 560.156163,278.93099 C540.211937,278.93099 524.283323,263.30599 524.283323,244.035156 C524.283323,224.764323 540.34579,209.139323 560.156163,209.139323 C579.966537,209.139323 596.029003,224.764323 596.029003,244.035156 Z M697.8918,279.451823 C695.616287,232.707031 684.640267,191.300781 649.436697,157.186198 C614.366983,123.071615 571.80145,112.394531 523.74791,110.050781 C474.221973,107.316406 325.778026,107.316406 276.252091,110.050781 C228.332404,112.264323 185.766871,122.941406 150.563302,157.05599 C115.359732,191.170573 104.517568,232.576823 102.108199,279.321615 C99.2972671,327.498698 99.2972671,471.89974 102.108199,520.076823 C104.383714,566.821616 115.359732,608.227863 150.563302,642.34245 C185.766871,676.457033 228.19855,687.134116 276.252091,689.477866 C325.778026,692.21224 474.221973,692.21224 523.74791,689.477866 C571.80145,687.264323 614.366983,676.58724 649.436697,642.34245 C684.506413,608.227866 695.482433,566.821616 697.8918,520.076823 C700.702733,471.89974 700.702733,327.628906 697.8918,279.451823 Z M633.90965,571.76953 C623.469047,597.290363 603.25711,616.951823 576.887897,627.23828 C537.401003,642.472656 443.70329,638.95703 400.066927,638.95703 C356.430563,638.95703 262.598996,642.342446 223.245956,627.23828 C197.010597,617.08203 176.798661,597.420573 166.224205,571.76953 C150.563302,533.358073 154.177356,442.21224 154.177356,399.764323 C154.177356,357.316406 150.697156,266.040365 166.224205,227.759115 C176.664808,202.238281 196.876743,182.576823 223.245956,172.290365 C262.73285,157.05599 356.430563,160.571615 400.066927,160.571615 C443.70329,160.571615 537.534857,157.186198 576.887897,172.290365 C603.123257,182.446615 623.335193,202.108073 633.90965,227.759115 C649.570553,266.170573 645.956497,357.316406 645.956497,399.764323 C645.956497,442.21224 649.570553,533.48828 633.90965,571.76953 Z" id="path-1" fill="#000000" fill-rule="nonzero"></path>
    </g>
</svg>