<?xml version="1.0" standalone="no"?>
<!DOCTYPE svg PUBLIC "-//W3C//DTD SVG 20010904//EN"
 "http://www.w3.org/TR/2001/REC-SVG-20010904/DTD/svg10.dtd">
<svg version="1.0" xmlns="http://www.w3.org/2000/svg"
 width="700.000000pt" height="700.000000pt" viewBox="0 0 700.000000 700.000000"
 preserveAspectRatio="xMidYMid meet">
<metadata>
Created by potrace 1.11, written by Peter Selinger 2001-2013
</metadata>
<g transform="translate(0.000000,700.000000) scale(0.100000,-0.100000)"
fill="#000000" stroke="none">
<path d="M4005 6939 c-16 -5 -58 -6 -91 -3 -43 5 -76 2 -110 -9 -27 -9 -94
-26 -149 -38 -55 -12 -112 -27 -127 -35 -14 -7 -69 -23 -121 -34 -52 -11 -132
-34 -178 -50 -87 -31 -140 -37 -183 -20 -21 8 -36 2 -99 -39 -79 -52 -110 -97
-59 -87 15 3 45 8 67 12 22 3 54 14 71 24 27 15 34 16 57 3 15 -7 27 -16 27
-18 0 -15 -83 -40 -232 -70 -94 -19 -173 -35 -176 -35 -2 0 2 7 9 16 12 15 11
16 -11 10 -14 -4 -33 -10 -44 -13 -10 -3 -66 -6 -125 -8 -116 -3 -163 -16
-290 -79 -40 -21 -156 -73 -258 -117 -211 -91 -228 -101 -249 -140 -11 -21
-22 -29 -42 -29 -37 0 -57 -19 -36 -34 12 -10 1 -19 -65 -54 -50 -27 -92 -58
-111 -82 -18 -22 -29 -40 -26 -40 4 0 33 11 66 25 33 14 72 25 87 24 l28 0
-25 -10 c-14 -5 -29 -16 -35 -23 -5 -7 -95 -71 -200 -141 -195 -132 -295 -206
-330 -245 -11 -12 -52 -44 -92 -71 -63 -43 -93 -73 -93 -93 0 -3 10 -6 23 -6
13 0 28 -5 33 -10 7 -7 24 -1 52 20 68 49 92 39 60 -24 -36 -71 -93 -147 -197
-266 -56 -63 -101 -118 -101 -123 0 -5 11 -7 25 -5 18 4 25 1 25 -11 1 -23 37
-64 50 -56 6 4 23 26 38 50 l27 42 72 -21 c39 -12 75 -25 79 -29 4 -4 -15 -31
-42 -60 -81 -84 -81 -84 -54 -112 22 -24 23 -28 10 -63 -7 -20 -35 -76 -62
-125 -27 -48 -64 -120 -83 -160 -60 -130 -188 -450 -211 -529 -12 -42 -32 -86
-43 -97 -27 -27 -26 -40 4 -81 37 -50 41 -89 16 -162 -12 -35 -28 -116 -37
-181 -14 -114 -42 -208 -78 -259 -15 -21 -16 -18 -16 64 0 73 -3 89 -18 100
-11 8 -26 43 -36 87 -16 66 -17 90 -6 245 10 161 23 234 71 414 36 136 179
405 270 510 18 20 29 44 29 62 0 17 -3 30 -6 30 -17 0 -77 -58 -104 -101 -18
-27 -33 -49 -35 -49 -1 0 42 89 97 198 54 108 98 201 98 206 0 12 -50 -3 -81
-25 -15 -11 -36 -38 -46 -60 -10 -23 -55 -114 -100 -203 -79 -157 -113 -245
-113 -294 0 -14 -14 -52 -31 -87 -19 -39 -36 -96 -45 -156 -29 -176 -94 -497
-108 -530 -13 -31 -14 -32 -25 -11 -6 12 -16 22 -22 22 -6 0 -2 -11 9 -25 17
-21 19 -32 11 -59 -8 -28 -4 -47 21 -109 41 -103 40 -148 -6 -217 -41 -63 -42
-107 -4 -159 24 -35 20 -51 -15 -51 -21 0 -27 8 -44 68 -35 117 -41 154 -41
264 0 59 -4 109 -8 112 -12 7 -49 -105 -61 -182 -11 -67 -4 -124 23 -200 20
-56 36 -185 36 -292 0 -54 5 -93 13 -105 7 -11 19 -40 26 -65 7 -25 21 -63 30
-85 10 -22 24 -87 30 -145 7 -58 17 -136 21 -175 5 -38 7 -104 3 -145 -4 -62
-3 -78 10 -89 17 -13 72 -7 82 9 3 5 -6 104 -20 222 -29 246 -32 401 -10 454
14 33 35 39 35 10 0 -8 11 -48 25 -90 23 -66 25 -81 15 -117 -16 -60 6 -195
80 -491 39 -154 44 -166 90 -213 53 -54 128 -224 175 -395 30 -110 42 -140 66
-163 33 -31 53 -35 45 -10 -3 10 -8 36 -11 58 -4 22 -9 48 -12 59 -11 41 19 1
58 -75 l40 -80 -35 6 c-32 6 -34 5 -29 -14 3 -12 17 -28 32 -35 41 -22 58 -47
75 -110 18 -72 26 -80 54 -60 29 20 30 89 1 145 -19 38 -54 187 -46 196 8 7
103 -85 184 -179 47 -55 96 -104 108 -110 14 -6 42 -7 74 -1 l53 8 -103 70
c-123 84 -148 114 -130 149 19 36 7 60 -71 134 -134 128 -211 262 -228 397 -5
43 -19 103 -30 132 -22 58 -26 118 -10 128 6 4 22 0 35 -9 22 -14 24 -14 27 2
6 29 38 -29 54 -100 16 -67 48 -129 95 -182 16 -19 29 -38 29 -44 0 -25 111
-173 254 -339 123 -143 164 -198 190 -256 32 -70 90 -137 119 -137 7 0 42 -29
77 -65 35 -36 61 -65 57 -65 -4 0 -49 9 -99 21 -110 24 -127 19 -159 -43 l-22
-42 33 -28 c51 -42 108 -56 329 -84 210 -25 233 -32 263 -70 11 -14 35 -25 61
-29 47 -8 112 -39 204 -97 51 -32 92 -47 228 -80 91 -22 165 -43 165 -47 0 -4
-26 -17 -57 -29 l-58 -22 140 2 c122 1 147 -2 198 -22 72 -27 87 -23 87 29 0
49 14 60 43 33 32 -29 79 -50 125 -58 32 -5 48 -2 77 16 39 24 59 24 158 -4
32 -10 77 -16 100 -14 40 3 41 4 55 58 8 30 16 56 17 58 1 1 123 -7 271 -19
205 -16 279 -19 314 -11 25 6 72 8 106 5 53 -5 67 -2 124 27 45 23 84 34 136
39 55 5 79 12 97 29 15 14 36 22 60 22 24 0 44 8 61 23 14 13 57 36 96 51 38
15 72 31 75 36 3 5 -11 14 -30 20 -38 12 -46 37 -21 63 8 7 70 30 138 50 185
54 173 53 203 23 l26 -26 42 29 c23 15 65 40 92 54 105 53 227 182 211 222
-12 33 -38 25 -152 -49 -138 -90 -156 -96 -192 -69 -41 30 -41 73 -1 109 112
101 143 134 178 189 22 34 51 69 65 78 26 17 26 17 16 -8 -11 -29 -9 -30 29
-10 32 16 91 90 91 114 1 9 20 43 44 75 42 58 45 59 94 61 76 3 137 43 205
135 10 14 -3 -15 -29 -65 -55 -107 -93 -160 -196 -278 -104 -117 -125 -160
-94 -186 10 -8 22 -5 52 15 67 45 114 96 171 189 31 50 71 111 90 137 18 26
53 89 77 140 29 60 55 101 74 115 21 16 39 46 62 104 17 44 42 98 55 118 13
21 46 83 74 139 46 92 54 103 101 128 42 23 55 37 79 88 16 34 55 97 87 141
108 150 117 168 171 328 76 225 103 341 110 477 7 129 -2 164 -40 158 -21 -3
-22 -8 -28 -183 -6 -184 -24 -278 -63 -330 -14 -18 -14 -17 -5 18 13 48 16
131 6 180 -20 96 -42 -6 -31 -140 5 -48 7 -92 5 -98 -2 -5 -8 -32 -13 -60 -10
-50 -32 -95 -121 -250 -47 -81 -78 -115 -103 -115 -22 0 -17 55 10 108 13 26
29 74 36 107 7 33 28 119 46 190 25 93 37 169 44 265 12 160 35 358 42 365 6
6 28 -153 28 -198 0 -15 8 -46 17 -69 l18 -43 6 30 c15 67 7 145 -37 352 -80
383 -92 517 -52 560 21 23 21 24 5 76 -8 28 -23 93 -32 142 -30 166 -68 270
-130 356 -19 27 -35 51 -35 54 0 16 -192 365 -246 447 -35 54 -107 145 -161
202 -54 57 -121 130 -149 162 -28 33 -88 86 -133 119 -59 44 -80 65 -78 80 4
41 44 29 184 -57 99 -60 157 -104 212 -159 159 -159 273 -293 350 -407 43 -65
101 -142 128 -172 41 -44 53 -51 72 -45 14 4 20 12 17 21 -10 27 -179 259
-246 339 -37 44 -161 177 -274 295 -215 223 -278 274 -529 430 l-78 48 27 31
c30 36 28 60 -9 117 -36 56 -65 44 -88 -36 -7 -25 -15 -49 -19 -53 -4 -4 -32
3 -62 16 -54 24 -56 27 -67 78 -16 72 -41 110 -116 168 -35 27 -78 68 -96 90
-30 38 -43 45 -172 87 -76 25 -149 44 -161 42 -12 -2 -28 -17 -38 -36 -22 -44
-23 -45 -46 -33 -14 7 -18 18 -15 35 4 20 0 25 -26 31 -34 7 -61 38 -61 71 0
35 -21 84 -40 94 -23 12 -244 60 -279 60 -15 0 -45 -10 -66 -21 -35 -19 -54
-21 -164 -19 -130 2 -228 13 -243 28 -9 9 95 52 136 56 37 4 64 28 75 68 13
43 15 44 64 23 35 -15 167 -17 167 -2 0 4 -5 7 -11 7 -7 0 9 17 35 38 41 33
44 38 29 50 -23 17 -51 15 -118 -8 -68 -24 -94 -25 -120 -6 -30 20 -57 25 -90
15z m-322 -199 c26 0 20 -17 -9 -24 -15 -4 -32 -2 -40 5 -21 18 -17 32 9 25
12 -3 30 -6 40 -6z m-188 -30 c4 -6 -9 -10 -32 -9 -30 0 -34 2 -18 9 27 12 43
12 50 0z m-935 -295 c0 -15 -70 -45 -105 -45 l-40 0 25 20 c14 10 34 21 45 23
31 7 75 8 75 2z m2556 -142 c-2 -2 -20 -1 -39 2 -41 8 -73 38 -83 79 -7 28 -5
27 60 -24 37 -29 65 -54 62 -57z m-1673 -1344 c49 -13 135 -100 170 -170 42
-83 38 -136 -24 -282 -78 -185 -87 -207 -93 -207 -20 0 -60 29 -75 54 -41 69
-36 129 25 282 43 110 54 183 29 204 -61 50 -257 -45 -428 -209 -224 -214
-357 -490 -359 -746 -2 -204 69 -315 201 -315 80 0 208 73 291 167 47 52 155
212 165 242 9 30 33 33 51 6 23 -35 15 -136 -15 -199 -84 -173 -269 -290 -461
-291 -186 0 -304 80 -371 254 -17 41 -24 85 -27 166 -5 130 8 215 53 342 148
415 596 778 868 702z m1034 -25 c95 -58 146 -224 113 -365 -36 -156 -200 -339
-388 -433 l-54 -27 47 -41 c62 -54 85 -103 85 -176 0 -84 -24 -144 -84 -209
-131 -145 -407 -258 -543 -224 -103 26 -193 123 -201 216 -3 38 3 73 26 140
68 204 206 491 356 740 l83 140 -45 11 c-31 8 -57 24 -80 49 -47 51 -40 66 38
82 36 7 126 33 200 58 208 69 237 75 322 72 65 -3 85 -8 125 -33z m-3131 -15
c-14 -17 -26 -37 -26 -44 0 -15 -58 -35 -104 -35 l-30 0 34 35 c26 27 96 62
148 74 2 1 -8 -13 -22 -30z m-311 -58 c-2 -5 -14 -11 -26 -14 -20 -5 -20 -5
-4 13 17 18 41 18 30 1z m129 -56 c-4 -8 -11 -15 -16 -15 -6 0 -5 6 2 15 7 8
14 15 16 15 2 0 1 -7 -2 -15z m629 -157 c-10 -11 -31 -27 -46 -35 -33 -17 -32
-15 23 61 34 47 35 48 38 21 2 -16 -4 -35 -15 -47z m4457 -189 c0 -5 -4 -9
-10 -9 -5 0 -10 7 -10 16 0 8 5 12 10 9 6 -3 10 -10 10 -16z m-5220 -125 c0
-19 -35 -62 -44 -53 -2 2 3 26 11 53 11 36 17 46 24 35 5 -8 9 -23 9 -35z
m-73 -160 c-3 -3 -12 -4 -19 -1 -8 3 -5 6 6 6 11 1 17 -2 13 -5z m5510 -235
c17 -17 5 -43 -13 -28 -15 12 -19 39 -6 39 4 0 13 -5 19 -11z m-4337 -134 c37
-45 -26 -293 -130 -512 -69 -144 -102 -195 -191 -289 -56 -59 -68 -79 -78
-123 -32 -151 12 -491 68 -525 22 -14 51 6 89 63 40 60 107 230 100 253 -3 8
-18 12 -40 10 -94 -8 -188 53 -188 122 0 45 19 84 67 137 62 68 124 86 196 56
36 -15 51 -41 64 -105 l8 -44 50 35 c84 60 160 104 201 117 21 7 59 30 84 50
93 78 195 104 235 60 67 -74 -73 -311 -255 -431 -21 -14 -24 -23 -23 -73 2
-60 13 -83 49 -97 73 -27 183 78 387 368 47 66 94 141 105 165 46 101 111 158
181 158 45 0 67 -28 76 -94 5 -48 4 -61 -12 -78 -18 -20 -18 -20 -25 22 -15
85 -61 115 -106 67 -64 -68 -158 -394 -132 -461 5 -14 16 -26 23 -26 48 0 144
139 258 370 69 141 76 150 106 156 35 7 83 -16 83 -39 0 -6 -13 -79 -30 -162
-65 -328 -63 -485 6 -485 20 0 88 64 138 130 92 120 226 359 241 430 11 53 46
66 85 33 25 -22 25 -41 1 -151 -11 -48 -23 -116 -26 -152 l-6 -65 46 50 c25
28 91 118 146 200 56 83 108 156 117 163 22 17 62 15 84 -5 25 -22 23 -60 -7
-140 -86 -228 -162 -615 -125 -638 18 -11 49 15 92 78 23 34 44 64 48 67 16
13 76 121 154 274 47 94 91 173 97 177 6 4 15 49 20 100 5 52 21 165 35 251
14 87 23 162 19 167 -3 6 -40 8 -90 4 -58 -4 -85 -3 -85 5 0 12 87 47 152 61
47 11 55 20 64 76 3 22 14 58 23 80 51 117 100 60 76 -88 l-7 -40 105 8 c111
7 147 2 147 -20 0 -17 -14 -21 -118 -40 -93 -16 -139 -37 -151 -68 -12 -32
-68 -411 -82 -551 -23 -239 -2 -426 49 -426 40 0 122 111 207 280 36 72 55
127 76 225 16 71 29 142 29 157 0 25 3 28 34 28 19 0 37 -4 41 -9 3 -6 -10
-83 -29 -173 -44 -210 -50 -248 -38 -248 18 0 95 95 141 171 86 145 171 301
171 315 0 18 31 18 56 0 17 -13 19 -27 18 -143 -1 -113 -14 -270 -31 -373 l-5
-35 48 46 c57 54 124 105 124 94 0 -4 16 7 37 25 34 30 168 120 178 120 19 0
-12 -34 -132 -146 -187 -172 -260 -260 -268 -322 -26 -198 -87 -417 -150 -542
-39 -78 -91 -146 -129 -169 -44 -28 -128 -29 -154 -3 -64 64 -93 231 -56 329
20 56 47 92 163 223 98 111 152 161 165 153 5 -3 6 -1 3 4 -4 6 12 28 36 49
23 21 48 54 55 74 7 19 17 100 22 179 5 80 12 171 16 203 4 32 4 58 1 58 -3 0
-27 -39 -53 -87 -71 -132 -161 -269 -200 -303 -66 -57 -109 -50 -121 22 l-6
40 -46 -88 c-76 -145 -179 -239 -240 -219 -67 21 -108 132 -113 308 -4 117 -2
118 -93 -68 -122 -248 -210 -365 -274 -365 -36 0 -85 53 -100 107 -23 80 -4
247 40 361 15 37 28 132 18 132 -4 0 -38 -50 -75 -111 -106 -177 -141 -207
-203 -175 -37 20 -66 73 -76 141 l-7 49 -31 -53 c-18 -29 -66 -99 -109 -155
-83 -110 -130 -146 -194 -146 -31 0 -44 7 -78 43 -23 23 -47 61 -54 84 -15 49
-16 215 -2 302 6 35 9 65 8 67 -2 2 -37 -58 -78 -133 -88 -161 -139 -229 -185
-249 -95 -39 -147 65 -116 227 7 34 11 63 9 65 -3 2 -23 -25 -46 -59 -122
-184 -260 -318 -341 -332 -160 -27 -235 243 -136 488 l23 57 -57 -50 c-31 -28
-89 -76 -129 -106 -79 -60 -84 -67 -107 -164 -22 -92 -118 -282 -161 -319 -85
-76 -195 0 -239 164 -23 82 -31 311 -15 416 41 283 174 616 325 816 67 88 135
125 165 88z m4402 -66 c23 -65 25 -218 5 -294 l-14 -50 -12 45 c-22 81 -49
194 -61 255 -12 58 -12 59 15 82 15 13 32 22 38 20 6 -2 19 -28 29 -58z
m-6062 -719 c0 -22 -4 -40 -10 -40 -5 0 -10 18 -10 40 0 22 5 40 10 40 6 0 10
-18 10 -40z m-194 -145 c9 -14 12 -29 8 -37 -5 -7 -11 -59 -14 -115 -3 -56 -9
-105 -12 -109 -4 -3 -21 4 -38 16 -23 16 -29 27 -23 39 4 9 8 59 8 111 0 52 4
101 8 108 13 20 45 14 63 -13z m309 -95 c-5 -8 -11 -8 -17 -2 -6 6 -7 16 -3
22 5 8 11 8 17 2 6 -6 7 -16 3 -22z m-23 -122 c-7 -7 -12 -8 -12 -2 0 14 12
26 19 19 2 -3 -1 -11 -7 -17z m5918 -398 c0 -31 -16 -41 -26 -15 -8 19 2 45
16 45 5 0 10 -13 10 -30z m-5894 -156 c7 -36 -6 -62 -24 -50 -12 7 -24 65 -16
77 13 21 33 7 40 -27z m494 -218 c0 -8 -4 -17 -9 -20 -10 -7 -23 19 -14 28 11
11 23 6 23 -8z m24 -91 c9 -14 14 -25 12 -25 -8 0 -36 31 -36 41 0 15 7 10 24
-16z m5012 -42 c-21 -78 -45 -111 -93 -129 -24 -9 -46 -15 -49 -12 -15 15 34
94 89 143 33 30 62 54 63 52 2 -2 -3 -26 -10 -54z m-2035 -310 c28 -5 30 -7
14 -14 -44 -17 -90 -7 -68 14 8 9 12 9 54 0z m-216 -133 c26 -18 41 -20 110
-15 65 4 75 3 55 -6 -14 -6 -69 -13 -123 -14 -88 -3 -100 -1 -117 18 -11 11
-17 24 -14 29 9 15 58 8 89 -12z m-2080 -360 c3 -5 -1 -10 -9 -10 -8 0 -18 5
-21 10 -3 6 1 10 9 10 8 0 18 -4 21 -10z m79 -16 c29 -11 16 -25 -21 -22 -42
3 -59 28 -20 28 14 0 32 -3 41 -6z m3206 -63 c8 -16 4 -24 -21 -46 -33 -27
-79 -31 -87 -8 -5 18 52 73 77 73 11 0 25 -9 31 -19z m200 -26 c0 -8 -9 -15
-20 -15 -22 0 -27 15 -7 23 21 9 27 7 27 -8z m-440 -81 c26 -30 7 -58 -54 -82
-62 -25 -390 -72 -371 -54 3 3 87 40 186 82 180 76 215 84 239 54z m-2730 6
c0 -5 -2 -10 -4 -10 -3 0 -8 5 -11 10 -3 6 -1 10 4 10 6 0 11 -4 11 -10z
m2425 -38 c-86 -52 -179 -102 -191 -102 -7 0 -18 9 -24 19 -19 36 15 58 125
80 126 24 126 24 90 3z m-1660 -224 c27 -12 34 -42 12 -51 -20 -8 -77 32 -70
49 6 17 24 18 58 2z"/>
<path d="M4255 4746 c-44 -13 -108 -33 -142 -46 -56 -20 -63 -26 -63 -49 0
-54 -43 -152 -144 -327 -57 -98 -100 -180 -96 -182 5 -2 50 11 102 28 226 75
405 192 509 330 81 107 97 206 42 250 -34 27 -105 25 -208 -4z"/>
<path d="M3930 3998 c-25 -5 -79 -7 -121 -5 l-77 5 -47 -101 c-63 -134 -105
-250 -105 -292 0 -63 50 -68 200 -19 206 66 391 238 364 337 -16 56 -122 93
-214 75z"/>
<path d="M2067 3712 c-66 -100 -248 -501 -263 -578 -7 -36 -6 -38 10 -25 20
17 131 201 178 296 49 98 119 327 105 341 -2 3 -16 -13 -30 -34z"/>
<path d="M2563 3020 c-60 -34 -91 -72 -129 -155 -29 -62 -44 -155 -26 -155 18
0 159 158 191 213 62 109 49 145 -36 97z"/>
<path d="M1912 2913 c-18 -7 -50 -74 -58 -121 -12 -77 33 -103 113 -65 53 25
68 88 39 158 -13 30 -19 35 -48 34 -18 0 -39 -3 -46 -6z"/>
<path d="M5394 2705 c-21 -19 -34 -34 -28 -35 5 0 25 16 44 35 43 45 35 45
-16 0z"/>
<path d="M5028 2244 c-139 -153 -180 -207 -214 -279 -48 -100 -19 -175 66
-175 33 0 46 6 78 38 78 79 152 267 208 530 2 12 0 22 -5 22 -5 0 -65 -61
-133 -136z"/>
<path d="M3090 6800 c0 -5 7 -10 15 -10 8 0 15 5 15 10 0 6 -7 10 -15 10 -8 0
-15 -4 -15 -10z"/>
<path d="M4063 6793 c-29 -11 -10 -23 37 -23 49 0 66 12 34 24 -18 7 -53 7
-71 -1z"/>
<path d="M717 5462 c-22 -24 -21 -32 3 -32 16 0 40 26 40 44 0 13 -28 5 -43
-12z"/>
<path d="M738 5333 c-25 -29 -40 -64 -34 -80 9 -23 86 41 86 73 0 29 -29 33
-52 7z"/>
<path d="M501 5084 c0 -11 3 -14 6 -6 3 7 2 16 -1 19 -3 4 -6 -2 -5 -13z"/>
<path d="M425 4990 c-3 -5 -1 -10 4 -10 6 0 11 5 11 10 0 6 -2 10 -4 10 -3 0
-8 -4 -11 -10z"/>
<path d="M6752 4719 c2 -6 8 -10 13 -10 5 0 11 4 13 10 2 6 -4 11 -13 11 -9 0
-15 -5 -13 -11z"/>
<path d="M496 4624 c-9 -24 -7 -28 9 -14 17 14 20 30 6 30 -5 0 -12 -7 -15
-16z"/>
<path d="M382 4573 c5 -26 44 -28 74 -4 l27 21 -52 0 c-45 0 -52 -3 -49 -17z"/>
<path d="M6838 4514 c6 -11 20 -28 33 -39 l23 -20 -23 32 c-26 38 -49 56 -33
27z"/>
<path d="M387 4438 c-22 -17 -32 -64 -16 -74 16 -10 49 31 49 62 0 27 -8 30
-33 12z"/>
<path d="M240 3851 c-14 -28 -13 -48 5 -55 12 -4 15 3 15 34 0 45 -4 49 -20
21z"/>
<path d="M6807 3853 c-15 -14 -6 -99 14 -140 12 -24 23 -42 26 -39 3 2 0 28
-6 58 -6 29 -13 69 -16 88 -7 39 -9 43 -18 33z"/>
<path d="M6875 3656 c6 -47 62 -216 71 -216 16 0 -35 196 -62 240 -14 24 -15
23 -9 -24z"/>
<path d="M34 2715 c3 -16 19 -106 36 -198 29 -172 43 -210 78 -219 51 -14 56
26 15 112 -17 36 -47 119 -67 185 -20 66 -44 127 -52 135 -14 14 -15 12 -10
-15z"/>
<path d="M404 1749 c6 -34 17 -64 24 -67 15 -5 15 10 -1 72 -20 75 -37 71 -23
-5z"/>
<path d="M575 1427 c-8 -156 -6 -167 61 -274 39 -63 104 -129 104 -106 0 13
-141 487 -150 502 -4 8 -11 -46 -15 -122z"/>
<path d="M1074 1546 c-4 -10 0 -24 8 -33 21 -20 31 6 12 31 -13 18 -14 18 -20
2z"/>
<path d="M6250 1279 c-7 -11 -10 -23 -7 -25 8 -8 38 8 48 27 8 16 6 19 -10 19
-11 0 -25 -9 -31 -21z"/>
<path d="M1245 1166 c37 -24 105 -50 112 -42 1 1 -10 15 -26 30 -22 21 -42 29
-78 33 l-48 4 40 -25z"/>
<path d="M105 1038 c-4 -10 -4 -26 0 -35 8 -17 8 -17 12 0 3 9 3 25 0 35 -4
16 -4 16 -12 0z"/>
<path d="M1460 936 c0 -13 72 -46 99 -46 54 0 37 26 -26 39 -61 12 -73 13 -73
7z"/>
<path d="M1290 809 c0 -33 35 -56 110 -73 40 -9 74 -15 76 -14 1 2 -40 26 -92
55 -81 44 -94 49 -94 32z"/>
<path d="M1120 715 c54 -57 158 -128 177 -121 14 6 14 9 -3 29 -76 91 -102
109 -169 121 l-40 8 35 -37z"/>
<path d="M5147 565 c-8 -19 13 -31 23 -14 9 14 4 29 -10 29 -4 0 -10 -7 -13
-15z"/>
<path d="M1570 560 c0 -5 5 -10 10 -10 6 0 10 5 10 10 0 6 -4 10 -10 10 -5 0
-10 -4 -10 -10z"/>
<path d="M5681 506 c-18 -19 -19 -24 -7 -29 9 -4 21 4 30 18 28 42 13 50 -23
11z"/>
<path d="M5162 256 c-134 -39 -244 -76 -245 -81 -4 -21 53 -29 116 -16 121 24
393 130 411 160 13 21 -36 10 -282 -63z"/>
<path d="M4695 169 c-68 -11 -137 -39 -132 -53 6 -18 105 -19 203 -1 71 13 97
22 115 41 l22 24 -79 -1 c-43 -1 -101 -5 -129 -10z"/>
<path d="M4203 133 c-36 -7 -27 -20 25 -37 84 -27 128 -30 197 -11 36 9 65 21
65 25 0 23 -205 39 -287 23z"/>
</g>
</svg>
